<?xml version="1.0" encoding="utf-8"?>
<svg version="1.1" id="layer" xmlns="http://www.w3.org/2000/svg" xmlns:xlink="http://www.w3.org/1999/xlink" x="0px" y="0px"
	 viewBox="0 0 983.8 244.8" style="enable-background:new 0 0 983.8 244.8;" xml:space="preserve">
<style type="text/css">
	.st0{fill:#F15A22;}
	.st1{fill:#F58220;}
	.st2{fill:#0057A8;}
	.st3{fill:#EF4123;}
	.st4{fill:#414042;}
</style>
<polygon class="st0" points="66,139.4 110.2,164.2 111.8,145.4 99.6,132.3 81.5,129.3 "/>
<polygon class="st1" points="73.5,54 110.2,164.2 146.9,127.4 "/>
<polygon class="st2" points="67.5,112.3 66,139.4 122.4,127.4 "/>
<polygon class="st3" points="39.2,166.6 46.5,156.9 45.2,145.1 27.2,133.4 0,127.4 "/>
<polygon class="st0" points="0,127.4 45.2,145.1 69.5,58 "/>
<polygon class="st1" points="39.2,166.6 73.5,200.9 105.6,168.7 45.2,145.1 "/>
<g>
	<path class="st4" d="M933.7,145.6v9c0,11.7-10.5,20.5-24.3,20.5c-12.4,0-18-7.6-18-14.9v-0.4c0-6.5,3.6-14.3,21-14.3h21.2V145.6z
		 M913.2,102.3c-12.2,0-20.8,3.2-27.7,6.7l-0.8,0.4l3.8,11.1l0.8-0.4c6.1-2.9,13.2-5.7,22.4-5.7c13.8,0,21.6,6.3,21.6,21h-22.4
		c-20.8,0-32.9,9.2-32.9,25v0.4c0,16.6,14.5,25.2,28.9,25.2c13.2,0,21.6-6.1,26.4-12v10.3h12.2v-48.9c0-10.1-2.7-18.5-8-24.1
		C932.3,105.3,923.9,102.3,913.2,102.3 M196.4,70.3L183.3,78v106.3h13.2V70.3z M784,75.5h-13.6v3.6v10.5H784V75.5z M255.1,102.3
		c-10.5,0-18.9,4.4-24.8,13.4V104h-12.8v80.3h12.8v-45.9c0-14,9-23.7,21.6-23.7c12.4,0,19.9,8.6,19.9,22.9v46.6h12.8v-49.5
		c0-9.6-2.7-17.6-7.8-23.3C271.6,105.5,264.1,102.3,255.1,102.3 M413.8,144.1v0.4c0,16.8-11.5,29.4-26.8,29.4c-15.1,0-27-13-27-29.6
		v-0.4c0-16.8,11.5-29.6,26.6-29.6C401.9,114.3,413.8,127.5,413.8,144.1 M387,102.3c-11.1,0-21.2,4.4-28.7,12.4
		c-7.3,7.8-11.3,18.3-11.3,29.4v0.4c0,23.3,17.4,41.5,39.8,41.5c11.1,0,21.2-4.4,28.9-12.4c7.3-7.8,11.5-18.3,11.5-29.4v-0.4
		C427,120.6,409.4,102.3,387,102.3 M455.4,121.6V104h-12.8v80.3h12.8v-32.1c0-21.4,11.3-35.7,28.9-35.7h1.7v-13.8h-0.8
		C472.8,102.1,461.9,109.1,455.4,121.6 M585.2,102.3c-11.1,0-19.7,4.8-26.4,14.7c-5-9.6-13.4-14.7-24.3-14.7c-12,0-18.9,6.5-23.3,13
		V104h-12.8v80.3h12.8v-45.7c0-14,8.4-23.9,20.1-23.9s18.5,8.4,18.5,22.6v47h12.8v-46.1c0-7.1,2.1-13.2,5.9-17.4
		c3.4-3.8,8.4-6.1,14-6.1c11.9,0,18.5,8.4,18.5,22.9v46.6h12.8v-49.5C613.9,114.7,603,102.3,585.2,102.3 M755,116v-12h-24.1V76.1
		l-12.8,7.5V104h-14v12h14v46.6c0,20.1,13.8,22.9,22,22.9c5.2,0,9.6-1.1,14-3.4l0.4-0.2v-11.9l-1.1,0.6c-3.8,1.9-6.7,2.7-10.5,2.7
		c-8,0-11.9-4-11.9-12.2V116L755,116L755,116z M861.6,162.5c-6.9,7.6-14.1,11.5-22.4,11.5c-14.9,0-26.8-13-26.8-29.6v-0.4
		c0-16.6,11.5-29.6,26-29.6c10.3,0,16.6,5.5,22.2,11.7l0.6,0.8l8.6-9.4l-0.6-0.6c-5.9-6.7-14.9-14.3-30.6-14.3
		c-10.7,0-20.6,4.4-28.1,12.4c-7.3,7.8-11.3,18.3-11.3,29.4v0.4c0,11.1,4,21.4,11.3,29.2c7.5,8,17.4,12.4,28.1,12.4
		c15.9,0,25-8.2,31.3-15.5l0.6-0.6l-8.2-8.2L861.6,162.5z M683.3,145.6v9c0,11.7-10.5,20.5-24.3,20.5c-12.4,0-18-7.6-18-14.9v-0.4
		c0-6.5,3.6-14.3,21-14.3h21.2V145.6z M662.8,102.3c-12.2,0-20.8,3.2-27.7,6.7l-0.8,0.4l3.8,11.1l0.8-0.4c6.1-2.9,13.2-5.7,22.4-5.7
		c13.8,0,21.6,6.3,21.6,21h-22.4c-20.8,0-32.9,9.2-32.9,25v0.4c0,16.6,14.5,25.2,28.9,25.2c13.2,0,21.6-6.1,26.6-12v10.3h12.2v-48.9
		c0-10.1-2.7-18.5-7.8-24.1C681.9,105.3,673.7,102.3,662.8,102.3 M320.9,96.5c0-11.5,3.1-15.9,12-15.9c3.4,0,6.3,0.6,10.7,1.9
		l0.8,0.2V70.9l-0.2-0.2c-3.8-1.5-7.5-2.1-12.6-2.1c-6.9,0-12.8,2.3-16.6,6.3c-4.4,4.6-6.7,11.9-6.7,20.8v8h-14v12h14v68.2h12.8
		v-68.2h24.1v-12h-24.1v-7.3H320.9z M783.6,104h-12.8v8.6v71.7h12.8V104z M950.7,104v1.5h2.9v7.8h1.7v-7.8h2.9V104H950.7z
		 M959.9,113.3h1.5v-6.7l2.9,4.4l0,0l2.9-4.4v6.7h1.7V104h-1.7l-2.9,4.4l-2.9-4.4h-1.7v9.4H959.9z"/>
</g>
</svg>
