<svg id="Layer_1" data-name="Layer 1" xmlns="http://www.w3.org/2000/svg" viewBox="0 0 500 135.49"><title>Zapier logo</title><path d="M251.42,409.1l-.07-.22,44.46-40.7V348.56H224.48v19.61h42.6l.07.19-44,40.73v19.61h73.39V409.1Z" transform="translate(-134 -316.25)" style="fill:#201515"/><path d="M340.3,346.7q-12.34,0-20.12,3.72a26.4,26.4,0,0,0-11.67,10.23,37.24,37.24,0,0,0-4.9,14.8l21.64,3q1.17-6.92,4.7-9.81a14.34,14.34,0,0,1,9.3-2.88q6.59,0,9.56,3.52c2,2.35,3,5.6,3,9.89v2.14H331q-15.89,0-22.83,7T301.21,407q0,11.84,6.93,17.61t17.43,5.74q13,0,20-9A33.3,33.3,0,0,0,351.38,409h.79l3,19.61h19.61V379q0-15.39-8.11-23.85T340.3,346.7Zm6.86,61.21c-3.11,2.6-7.19,3.89-12.26,3.89q-6.27,0-8.71-2.2a7.17,7.17,0,0,1-2.45-5.58,7.33,7.33,0,0,1,2-5.41,7.55,7.55,0,0,1,5.58-2h20.47v1.35a12.45,12.45,0,0,1-4.65,10Z" transform="translate(-134 -316.25)" style="fill:#201515"/><path d="M493.33,348.56H470.16v80.15h23.17Z" transform="translate(-134 -316.25)" style="fill:#201515"/><path d="M630.11,348.56q-9.82,0-15.48,6.93-4.06,5-6.18,14.71h-.68l-3-21.64H585v80.14h23.17v-41.1q0-7.77,3.64-11.92t13.43-4.15H634v-23Z" transform="translate(-134 -316.25)" style="fill:#201515"/><path d="M562,351.18q-8.11-4.83-20.47-4.81-19.44,0-30.44,11.07T500.1,388a48.66,48.66,0,0,0,5,22.65,36,36,0,0,0,14.21,15q9.21,5.32,21.9,5.33,11,0,18.34-3.38a29.49,29.49,0,0,0,11.67-9.22,40.18,40.18,0,0,0,6.34-13.1l-20-5.59a18.47,18.47,0,0,1-4.7,8.13q-3.38,3.38-11.33,3.38-9.45,0-14.09-5.41c-2.24-2.61-3.65-6.33-4.27-11.16h54.66c.22-2.25.34-4.15.34-5.67v-5a44.5,44.5,0,0,0-4.05-19.45A30.43,30.43,0,0,0,562,351.18Zm-21.14,14.29q14.09,0,16,13.87H523.61a19.08,19.08,0,0,1,3.72-8.47Q531.9,365.46,540.86,365.47Z" transform="translate(-134 -316.25)" style="fill:#201515"/><path d="M482,316.26a13,13,0,0,0-9.48,3.64,12.55,12.55,0,0,0-3.72,9.39A12.74,12.74,0,0,0,482,342.48a12.53,12.53,0,0,0,9.39-3.72,12.92,12.92,0,0,0,3.63-9.46,12.46,12.46,0,0,0-13-13Z" transform="translate(-134 -316.25)" style="fill:#201515"/><path d="M434.14,346.3q-12.85,0-19.55,8.11t-6.68,24.22V429a12.19,12.19,0,1,0,24.38,0V379.64q0-7.77,2.52-11t8.69-3.25a28.8,28.8,0,0,1,11.67,2.52l5.25-21.29a47.74,47.74,0,0,0-15.81-2.59A31.36,31.36,0,0,0,434.14,346.3Z" transform="translate(-134 -316.25)" style="fill:#201515"/></svg>
